#!OML:ASF I:\Actors\actors\Patient Classification 2\Patient 1\Session 1\actor1.ASF
:FULLY-SPECIFIED
:DEGREES
329
root -1.05236 18.0214 6.06604 -2.91119 -5.12964 -4.70328
lowerback 5.7079 -1.56632 -0.0385756
upperback -1.48693 -1.93971 3.51538
thorax -4.62248 -0.911616 3.86089
lowerneck -2.48778 -2.77005 1.6986
upperneck 38.8028 -9.92625 13.6331
head 14.6666 -2.599 4.14261
rclavicle 2.3556e-014 -1.03368e-014
rhumerus 59.2575 -36.2302 -59.8274
rradius 129.288
rwrist -56.5781
rhand 4.26899 -9.42974
rfingers 7.12502
rthumb 29.6725 322.924
lclavicle 2.3556e-014 -1.03368e-014
lhumerus 31.9313 -18.2207 47.1462
lradius 137.132
lwrist 48.5134
lhand -17.8395 -36.3308
lfingers 7.12502
lthumb 8.42527 -6.51887
rfemur 0 0 0
rtibia 0
rfoot 0 0
rtoes 0
lfemur 23.6261 -7.09254 -13.0138
ltibia -19.3001
lfoot -5.61869 22.5451
ltoes -8.37805
330
root -1.04773 18.0265 6.07033 -2.74311 -5.16505 -4.68496
lowerback 5.26538 -1.54498 -0.0827758
upperback -1.53594 -1.91905 3.58164
thorax -4.42058 -0.90168 3.93744
lowerneck -3.17087 -2.91321 1.67472
upperneck 38.5065 -10.2659 13.941
head 14.7425 -2.69718 4.20888
rclavicle 5.79954e-014 -5.36719e-014
rhumerus 56.9789 -35.059 -58.0581
rradius 125.87
rwrist -55.5728
rhand 5.21463 -10.3064
rfingers 7.12502
rthumb 30.5747 322.212
lclavicle 5.79954e-014 -5.36719e-014
lhumerus 31.0783 -18.7002 48.4155
lradius 136.595
lwrist 49.9235
lhand -18.8078 -35.3342
lfingers 7.12502
lthumb 7.49064 -5.48686
rfemur 0 0 0
rtibia 0
rfoot 0 0
rtoes 0
lfemur 23.4162 -7.06454 -13.0387
ltibia -19.2185
lfoot -5.66307 22.5698
ltoes -8.49371
331
root -1.04615 18.031 6.07546 -2.6441 -5.20845 -4.66873
lowerback 4.82894 -1.53495 -0.110638
upperback -1.52276 -1.91588 3.59598
thorax -4.15847 -0.902897 3.95054
lowerneck -3.77134 -3.0213 1.85995
upperneck 38.1172 -10.4973 14.0808
head 14.7182 -2.74525 4.16938
rclavicle 3.42407e-014 0
rhumerus 54.2481 -33.7295 -55.4215
rradius 122.353
rwrist -54.9932
rhand 6.36027 -12.0559
rfingers 7.12502
rthumb 31.6665 320.672
lclavicle 3.42407e-014 0
lhumerus 30.3511 -19.0413 49.3495
lradius 135.887
lwrist 51.8284
lhand -20.1762 -33.6923
lfingers 7.12502
lthumb 6.16972 -3.80219
rfemur 0 0 0
rtibia 0
rfoot 0 0
rtoes 0
lfemur 23.3181 -6.96846 -13.0472
ltibia -19.1959
lfoot -5.56673 22.5375
ltoes -8.98735
332
root -1.04468 18.0337 6.07841 -2.65964 -5.20013 -4.66023
lowerback 4.54457 -1.56881 -0.077551
upperback -1.52358 -1.96506 3.58284
thorax -3.99651 -0.930569 3.91095
lowerneck -4.61136 -3.24516 1.7315
upperneck 37.76 -10.9733 14.4506
head 14.8316 -2.90736 4.2531
rclavicle 9.0944e-015 1.70955e-014
rhumerus 51.2213 -32.0346 -52.2977
rradius 119.02
rwrist -55.8519
rhand 8.64198 -14.0472
rfingers 7.12502
rthumb 33.8372 319.133
lclavicle 9.0944e-015 1.70955e-014
lhumerus 29.456 -19.5101 50.0279
lradius 135.046
lwrist 54.0069
lhand -21.5199 -32.0848
lfingers 7.12502
lthumb 4.87231 -2.16084
rfemur 0 0 0
rtibia 0
rfoot 0 0
rtoes 0
lfemur 23.3513 -6.92811 -13.0582
ltibia -19.2097
lfoot -5.49632 22.4928
ltoes -9.17875
333
root -1.04154 18.0332 6.07693 -2.79014 -5.09772 -4.65133
lowerback 4.43789 -1.65409 -0.00876825
upperback -1.51634 -2.07696 3.58955
thorax -3.92328 -0.988968 3.88304
lowerneck -5.83627 -3.765 0.394598
upperneck 37.296 -12.0852 15.8477
head 15.246 -3.38841 4.91205
rclavicle 5.96354e-015 3.97569e-015
rhumerus 48.451 -30.0217 -48.8918
rradius 115.795
rwrist -57.9056
rhand 12.06 -15.9891
rfingers 7.12502
rthumb 37.0775 317.966
lclavicle 5.96354e-015 3.97569e-015
lhumerus 28.5018 -19.9995 50.5084
lradius 134.135
lwrist 56.3175
lhand -22.5732 -30.4134
lfingers 7.12502
lthumb 3.85523 -0.468525
rfemur 0 0 0
rtibia 0
rfoot 0 0
rtoes 0
lfemur 23.4689 -6.90601 -13.0741
ltibia -19.2343
lfoot -5.42872 22.394
ltoes -9.13494
334
root -1.03928 18.03 6.07297 -2.9856 -4.95718 -4.60273
lowerback 4.43351 -1.72083 0.0265321
upperback -1.48243 -2.16571 3.57155
thorax -3.88164 -1.03503 3.84961
lowerneck -5.68854 -3.88918 0.170597
upperneck 36.5054 -12.2173 16.2887
head 14.8875 -3.47602 5.06848
rclavicle -5.51627e-015 -2.10712e-014
rhumerus 45.9863 -27.9893 -45.1992
rradius 112.659
rwrist -60.655
rhand 15.5052 -18.7888
rfingers 7.12502
rthumb 40.327 316.085
lclavicle -5.51627e-015 -2.10712e-014
lhumerus 27.7834 -20.3922 50.686
lradius 133.283
lwrist 58.9482
lhand -23.3739 -28.3726
lfingers 7.12502
lthumb 3.08197 1.58483
rfemur 0 0 0
rtibia 0
rfoot 0 0
rtoes 0
lfemur 23.6286 -6.76607 -13.1037
ltibia -19.278
lfoot -5.26218 22.1686
ltoes -9.1953
335
root -1.0375 18.0268 6.06809 -3.18905 -4.83686 -4.53616
lowerback 4.44231 -1.74274 0.0943263
upperback -1.42261 -2.19534 3.48383
thorax -3.82828 -1.05344 3.7205
lowerneck -4.13719 -4.0947 -0.961141
upperneck 34.5315 -12.4081 18.017
head 13.8397 -3.71832 5.8801
rclavicle 1.5207e-014 1.82882e-014
rhumerus 43.4562 -25.8279 -40.9541
rradius 109.837
rwrist -62.3616
rhand 20.434 -20.4325
rfingers 7.12502
rthumb 44.9392 316.044
lclavicle 1.5207e-014 1.82882e-014
lhumerus 27.3458 -20.7901 50.4587
lradius 132.552
lwrist 61.5998
lhand -24.0154 -26.1699
lfingers 7.12502
lthumb 2.46245 3.79564
rfemur 0 0 0
rtibia 0
rfoot 0 0
rtoes 0
lfemur 23.803 -6.60578 -13.1498
ltibia -19.3335
lfoot -5.05456 21.9188
ltoes -9.49645
336
root -1.03556 18.0239 6.06361 -3.35751 -4.72908 -4.53245
lowerback 4.39757 -1.80305 0.245135
upperback -1.37866 -2.27121 3.42016
thorax -3.76089 -1.09654 3.57144
lowerneck -4.21932 -4.18382 -1.06862
upperneck 34.1782 -12.4945 18.1338
head 13.7233 -3.77295 5.90755
rclavicle -2.29596e-014 -9.93923e-015
rhumerus 41.1145 -23.397 -36.3769
rradius 107.572
rwrist -62.6862
rhand 23.5508 -21.907
rfingers 7.12502
rthumb 47.8274 315.8
lclavicle -2.29596e-014 -9.93923e-015
lhumerus 26.9158 -21.1787 49.9264
lradius 131.856
lwrist 63.7656
lhand -24.3363 -24.4473
lfingers 7.12502
lthumb 2.15256 5.52161
rfemur 0 0 0
rtibia 0
rfoot 0 0
rtoes 0
lfemur 23.9536 -6.53526 -13.1452
ltibia -19.3783
lfoot -4.90007 21.7494
ltoes -9.86511
337
root -1.03527 18.0209 6.0615 -3.49383 -4.62049 -4.54131
lowerback 4.33651 -1.90132 0.347645
upperback -1.38303 -2.39805 3.41084
thorax -3.72803 -1.16254 3.51066
lowerneck -4.20737 -4.22232 -1.41009
upperneck 33.9664 -12.5144 18.3113
head 13.6607 -3.82133 6.0284
rclavicle -3.51352e-014 2.38542e-014
rhumerus 39.0936 -20.697 -31.5347
rradius 105.911
rwrist -61.5961
rhand 25.32 -22.2393
rfingers 7.12502
rthumb 49.4547 316.256
lclavicle -3.51352e-014 2.38542e-014
lhumerus 26.5009 -21.5936 49.2352
lradius 131.226
lwrist 65.5721
lhand -24.4796 -23.2949
lfingers 7.12502
lthumb 2.01422 6.67534
rfemur 0 0 0
rtibia 0
rfoot 0 0
rtoes 0
lfemur 24.0845 -6.5433 -13.1343
ltibia -19.416
lfoot -4.83468 21.6542
ltoes -9.88129
338
root -1.03651 18.0173 6.06123 -3.62104 -4.51898 -4.50954
lowerback 4.30598 -1.94633 0.362993
upperback -1.38146 -2.45874 3.38935
thorax -3.70725 -1.19358 3.48257
lowerneck -4.34416 -4.28343 -1.5819
upperneck 33.8319 -12.6118 18.4591
head 13.67 -3.87104 6.0986
rclavicle 4.68635e-014 -3.97569e-015
rhumerus 37.3181 -18.1928 -26.758
rradius 104.815
rwrist -60.991
rhand 27.7655 -22.4758
rfingers 7.12502
rthumb 51.6872 317.235
lclavicle 4.68635e-014 -3.97569e-015
lhumerus 26.3702 -22.1232 48.4375
lradius 130.774
lwrist 67.1622
lhand -24.7872 -22.1673
lfingers 7.12502
lthumb 1.71714 7.80557
rfemur 0 0 0
rtibia 0
rfoot 0 0
rtoes 0
lfemur 24.2536 -6.52479 -13.1573
ltibia -19.5413
lfoot -4.74405 21.5635
ltoes -9.62814
339
root -1.03759 18.014 6.06146 -3.71817 -4.41321 -4.46892
lowerback 4.28341 -1.94884 0.355756
upperback -1.38233 -2.46391 3.36044
thorax -3.696 -1.19638 3.45594
lowerneck -4.34867 -4.30576 -1.6467
upperneck 33.8047 -12.627 18.4606
head 13.6642 -3.88631 6.10703
rclavicle -2.48481e-015 -2.06736e-014
rhumerus 35.7681 -15.9326 -22.3788
rradius 104.413
rwrist -60.9896
rhand 30.6929 -23.4427
rfingers 7.12502
rthumb 54.3288 317.944
lclavicle -2.48481e-015 -2.06736e-014
lhumerus 26.4665 -22.6901 47.5453
lradius 130.406
lwrist 68.4235
lhand -25.0062 -21.2889
lfingers 7.12502
lthumb 1.50559 8.68552
rfemur 0 0 0
rtibia 0
rfoot 0 0
rtoes 0
lfemur 24.423 -6.51108 -13.1881
ltibia -19.7371
lfoot -4.5892 21.4814
ltoes -9.53084
340
root -1.03731 18.0155 6.05714 -3.57089 -4.48343 -4.85072
lowerback 4.13304 -1.90371 0.785294
upperback -1.44897 -2.37742 3.45871
thorax -3.69853 -1.16175 3.30624
lowerneck -4.3344 -4.30173 -1.65757
upperneck 33.9128 -12.5954 18.3375
head 13.693 -3.88041 6.06882
rclavicle -2.50469e-014 -1.59028e-014
rhumerus 34.5953 -13.849 -18.5601
rradius 104.364
rwrist -61.0505
rhand 34.3641 -25.1181
rfingers 7.12502
rthumb 57.5819 318.791
lclavicle -2.50469e-014 -1.59028e-014
lhumerus 26.7167 -23.1696 46.5529
lradius 130.105
lwrist 69.6449
lhand -25.014 -20.9226
lfingers 7.12502
lthumb 1.49806 9.05193
rfemur 0 0 0
rtibia 0
rfoot 0 0
rtoes 0
lfemur 24.3611 -6.58777 -12.7615
ltibia -19.8414
lfoot -4.58242 21.6217
ltoes -9.52467
341
root -1.03728 18.0174 6.05414 -3.39461 -4.59012 -5.23857
lowerback 3.9244 -1.8402 1.19367
upperback -1.49718 -2.27098 3.57131
thorax -3.64767 -1.11715 3.17928
lowerneck -4.35771 -4.28625 -1.69924
upperneck 34.095 -12.5762 18.2595
head 13.7743 -3.87359 6.06072
rclavicle -2.5345e-015 -3.26007e-014
rhumerus 33.9203 -12.307 -15.5491
rradius 104.697
rwrist -61.2027
rhand 37.345 -25.5921
rfingers 7.12502
rthumb 60.1602 320.797
lclavicle -2.5345e-015 -3.26007e-014
lhumerus 27.1152 -23.4831 45.5662
lradius 129.887
lwrist 71.011
lhand -24.901 -20.6705
lfingers 7.12502
lthumb 1.60721 9.30318
rfemur 0 0 0
rtibia 0
rfoot 0 0
rtoes 0
lfemur 24.2471 -6.68847 -12.3398
ltibia -19.8647
lfoot -4.71037 21.8228
ltoes -9.32908
342
root -1.03926 18.0127 6.06344 -3.61267 -4.3852 -4.80891
lowerback 3.86615 -1.84471 0.716681
upperback -1.4283 -2.31018 3.47143
thorax -3.52648 -1.12813 3.34134
lowerneck -4.33385 -4.25374 -1.74211
upperneck 34.264 -12.5296 18.1986
head 13.8362 -3.85627 6.06386
rclavicle 1.51076e-014 -2.74323e-014
rhumerus 33.5038 -11.1732 -13.1858
rradius 105.251
rwrist -61.0653
rhand 39.6156 -25.6758
rfingers 7.12502
rthumb 62.0758 322.925
lclavicle 1.51076e-014 -2.74323e-014
lhumerus 27.5718 -23.618 44.7239
lradius 129.671
lwrist 72.4974
lhand -24.9302 -20.1371
lfingers 7.12502
lthumb 1.57893 9.83678
rfemur 0 0 0
rtibia 0
rfoot 0 0
rtoes 0
lfemur 24.4327 -6.7657 -12.845
ltibia -19.8764
lfoot -4.72043 21.705
ltoes -9.38382
343
root -1.04127 18.0073 6.07183 -3.83796 -4.19491 -4.45024
lowerback 3.87339 -1.83695 0.301909
upperback -1.37027 -2.32553 3.40881
thorax -3.45564 -1.1283 3.50895
lowerneck -4.17968 -4.20066 -1.65605
upperneck 34.3823 -12.3896 17.9665
head 13.8035 -3.80729 5.97698
rclavicle -3.77691e-015 -1.07344e-014
rhumerus 33.234 -10.5736 -11.5177
rradius 105.983
rwrist -61.2931
rhand 40.9894 -25.6648
rfingers 7.12502
rthumb 63.2101 324.434
lclavicle -3.77691e-015 -1.07344e-014
lhumerus 28.0725 -23.6336 44.0391
lradius 129.506
lwrist 73.955
lhand -25.1529 -19.8454
lfingers 7.12502
lthumb 1.36386 10.13
rfemur 0 0 0
rtibia 0
rfoot 0 0
rtoes 0
lfemur 24.6026 -6.7902 -13.2597
ltibia -19.8286
lfoot -4.67396 21.5279
ltoes -9.69352
